<?xml version="1.0" encoding="UTF-8"?>
<svg id="_레이어_2" data-name="레이어 2" xmlns="http://www.w3.org/2000/svg" viewBox="0 0 61.17 14.42">
  <defs>
    <style>
      .cls-1 {
        fill: #fff;
      }

      .cls-2 {
        fill: #778fed;
      }
    </style>
  </defs>
  <g id="Layer_1" data-name="Layer 1">
    <g>
      <g>
        <path class="cls-2" d="M61.17,8.29c0,.77-.62,1.4-1.4,1.4s-1.4-.62-1.4-1.4,.63-1.4,1.4-1.4,1.4,.63,1.4,1.4Z"/>
        <path class="cls-2" d="M2.79,3.24c0,.77-.63,1.4-1.4,1.4s-1.4-.62-1.4-1.4S.62,1.84,1.4,1.84s1.4,.63,1.4,1.4Z"/>
        <path class="cls-1" d="M56.72,14.42c-2.17,0-3.94-1.77-3.94-3.94h1.78c0,1.19,.97,2.17,2.17,2.17s2.17-.97,2.17-2.17h1.78c0,2.17-1.77,3.94-3.94,3.94Z"/>
      </g>
      <g>
        <path class="cls-1" d="M6.29,2.52c-.62-.41-1.37-.65-2.17-.65v1.78c1.19,0,2.17,.97,2.17,2.17s-.97,2.17-2.17,2.17-2.17-.97-2.17-2.17H.18c0,2.17,1.77,3.94,3.94,3.94s3.94-1.77,3.94-3.94V0h-1.78V2.52Z"/>
        <path class="cls-1" d="M12.72,1.87c-2.17,0-3.94,1.77-3.94,3.94s1.77,3.94,3.94,3.94c.8,0,1.54-.24,2.17-.65v.61h1.78v-3.9c0-2.17-1.77-3.94-3.94-3.94Zm0,6.11c-1.19,0-2.17-.97-2.17-2.17s.97-2.17,2.17-2.17,2.17,.97,2.17,2.17-.97,2.17-2.17,2.17Z"/>
        <path class="cls-1" d="M21.63,1.87c-.8,0-1.54,.24-2.17,.65V0h-1.78V9.71h1.78v-3.9c0-1.19,.97-2.17,2.17-2.17s2.17,.97,2.17,2.17v3.9h1.78v-3.9c0-2.17-1.77-3.94-3.94-3.94Z"/>
        <path class="cls-1" d="M47.94,1.87c-2.17,0-3.94,1.77-3.94,3.94v3.9h1.78v-3.9c0-1.19,.97-2.17,2.17-2.17s2.17,.97,2.17,2.17v3.9h1.78v-3.9c0-2.17-1.77-3.94-3.94-3.94Z"/>
        <path class="cls-1" d="M56.72,1.87c-2.17,0-3.94,1.77-3.94,3.94s1.77,3.94,3.94,3.94v-1.78c-1.19,0-2.17-.97-2.17-2.17s.97-2.17,2.17-2.17,2.17,.97,2.17,2.17h1.78c0-2.17-1.77-3.94-3.94-3.94Z"/>
        <path class="cls-1" d="M30.36,1.87c-2.17,0-3.94,1.77-3.94,3.94s1.77,3.94,3.94,3.94c.8,0,1.54-.24,2.17-.65v.61h1.78v-3.9c0-2.17-1.77-3.94-3.94-3.94Zm0,6.11c-1.19,0-2.17-.97-2.17-2.17s.97-2.17,2.17-2.17,2.17,.97,2.17,2.17-.97,2.17-2.17,2.17Z"/>
        <path class="cls-1" d="M39.15,1.88c-2.17,0-3.94,1.76-3.94,3.94s1.76,3.94,3.94,3.94v-1.77c-.88,0-1.64-.53-1.98-1.28h5.81c.07-.29,.1-.58,.1-.89,0-2.17-1.76-3.94-3.94-3.94Zm-1.98,3.05c.34-.75,1.1-1.28,1.98-1.28s1.64,.53,1.98,1.28h-3.95Z"/>
      </g>
    </g>
  </g>
</svg>