<?xml version="1.0" encoding="UTF-8"?>
<svg id="_레이어_2" data-name="레이어 2" xmlns="http://www.w3.org/2000/svg" viewBox="0 0 16.63 20.03">
  <defs>
    <style>
      .cls-1 {
        fill: #778fed;
      }

      .cls-2 {
        fill: #2a2722;
      }
    </style>
  </defs>
  <g id="Layer_1" data-name="Layer 1">
    <g>
      <path class="cls-2" d="M8.32,19.99C3.86,19.99,.23,16.37,.23,11.91H3.87c0,2.45,1.99,4.44,4.44,4.44v3.64Z"/>
      <path class="cls-2" d="M12.76,0V5.16c-1.28-.84-2.8-1.34-4.44-1.34v3.64c2.45,0,4.44,1.99,4.44,4.44h0s3.64,.01,3.64,.01V0h-3.64Z"/>
      <g>
        <path class="cls-1" d="M5.72,6.65c0,1.58-1.28,2.86-2.86,2.86S0,8.23,0,6.65,1.28,3.79,2.86,3.79s2.86,1.28,2.86,2.86Z"/>
        <circle class="cls-1" cx="13.77" cy="17.17" r="2.86"/>
      </g>
    </g>
  </g>
</svg>